<mxfile host="65bd71144e">
    <diagram id="qzJ3ZuYmiQqz-6YlRLHa" name="Страница 1">
        <mxGraphModel dx="627" dy="2244" grid="1" gridSize="10" guides="1" tooltips="1" connect="1" arrows="1" fold="1" page="1" pageScale="1" pageWidth="827" pageHeight="1169" math="0" shadow="0">
            <root>
                <mxCell id="0"/>
                <mxCell id="1" parent="0"/>
                <mxCell id="2" style="edgeStyle=orthogonalEdgeStyle;rounded=0;orthogonalLoop=1;jettySize=auto;html=1;exitX=0.5;exitY=0.5;exitDx=0;exitDy=30;exitPerimeter=0;fontSize=16;entryX=0.491;entryY=-0.007;entryDx=0;entryDy=0;entryPerimeter=0;" parent="1" source="3" target="53" edge="1">
                    <mxGeometry relative="1" as="geometry">
                        <mxPoint x="439" y="155.5" as="targetPoint"/>
                    </mxGeometry>
                </mxCell>
                <mxCell id="3" value="&lt;font style=&quot;font-size: 14px&quot;&gt;Начало&lt;/font&gt;" style="html=1;dashed=0;whitespace=wrap;shape=mxgraph.dfd.start" parent="1" vertex="1">
                    <mxGeometry x="334" y="70" width="208.78" height="60" as="geometry"/>
                </mxCell>
                <mxCell id="60" style="edgeStyle=none;html=1;exitX=0.498;exitY=0.988;exitDx=0;exitDy=0;entryX=0.5;entryY=0;entryDx=0;entryDy=0;exitPerimeter=0;" parent="1" source="53" target="54" edge="1">
                    <mxGeometry relative="1" as="geometry"/>
                </mxCell>
                <mxCell id="53" value="&lt;font&gt;&lt;font style=&quot;font-size: 14px&quot;&gt;Всем элементам буфера кадра присвоить фоновое значение&lt;/font&gt;&lt;br&gt;&lt;/font&gt;" style="rounded=0;whiteSpace=wrap;html=1;shadow=0;glass=0;sketch=0;strokeWidth=1;gradientColor=none;" parent="1" vertex="1">
                    <mxGeometry x="335.69" y="157.5" width="208.31" height="60" as="geometry"/>
                </mxCell>
                <mxCell id="58" style="edgeStyle=none;html=1;exitX=0.49;exitY=0.976;exitDx=0;exitDy=0;entryX=0.5;entryY=0;entryDx=0;entryDy=0;exitPerimeter=0;" parent="1" source="54" target="56" edge="1">
                    <mxGeometry relative="1" as="geometry">
                        <mxPoint x="440.69000000000005" y="348.93999999999994" as="targetPoint"/>
                    </mxGeometry>
                </mxCell>
                <mxCell id="54" value="&lt;font style=&quot;font-size: 14px&quot;&gt;Инициализировать z-буфер минимальным значением &lt;br&gt;глубины&lt;/font&gt;&lt;br style=&quot;font-size: 14px&quot;&gt;&#9;" style="rounded=0;whiteSpace=wrap;html=1;shadow=0;glass=0;sketch=0;strokeWidth=1;gradientColor=none;" parent="1" vertex="1">
                    <mxGeometry x="335.69" y="237.5" width="208.31" height="60" as="geometry"/>
                </mxCell>
                <mxCell id="65" style="edgeStyle=none;html=1;exitX=0.5;exitY=1;exitDx=0;exitDy=0;entryX=0.5;entryY=0;entryDx=0;entryDy=0;fontFamily=Helvetica;fontSize=14;" parent="1" source="56" target="63" edge="1">
                    <mxGeometry relative="1" as="geometry"/>
                </mxCell>
                <mxCell id="56" value="&lt;font style=&quot;font-size: 14px&quot;&gt;&lt;font style=&quot;font-size: 14px&quot;&gt;Для каждого&amp;nbsp;&lt;br&gt;многоугольника сцены&amp;nbsp;&lt;br&gt;&lt;/font&gt;&lt;/font&gt;" style="shape=loopLimit;whiteSpace=wrap;html=1;strokeWidth=1;direction=east;" parent="1" vertex="1">
                    <mxGeometry x="333.39000000000004" y="317.5" width="210" height="60" as="geometry"/>
                </mxCell>
                <mxCell id="78" style="edgeStyle=orthogonalEdgeStyle;rounded=0;html=1;exitX=0.5;exitY=0;exitDx=0;exitDy=0;entryX=0.5;entryY=1;entryDx=0;entryDy=0;fontFamily=Helvetica;fontSize=14;" parent="1" source="57" target="67" edge="1">
                    <mxGeometry relative="1" as="geometry"/>
                </mxCell>
                <mxCell id="57" value="&lt;font style=&quot;font-size: 16px&quot;&gt;&lt;span style=&quot;font-size: 14px&quot;&gt;Для каждого&amp;nbsp;&lt;/span&gt;&lt;br style=&quot;font-size: 14px&quot;&gt;&lt;span style=&quot;font-size: 14px&quot;&gt;пикселя текущего многоугольника&lt;/span&gt;&lt;br&gt;&lt;/font&gt;" style="shape=loopLimit;whiteSpace=wrap;html=1;strokeWidth=1;direction=west;" parent="1" vertex="1">
                    <mxGeometry x="339.00000000000006" y="860" width="210" height="60" as="geometry"/>
                </mxCell>
                <mxCell id="66" style="edgeStyle=none;html=1;exitX=0.5;exitY=1;exitDx=0;exitDy=0;entryX=0.5;entryY=0;entryDx=0;entryDy=0;fontFamily=Helvetica;fontSize=14;" parent="1" source="63" target="64" edge="1">
                    <mxGeometry relative="1" as="geometry"/>
                </mxCell>
                <mxCell id="63" value="&lt;font style=&quot;font-size: 14px&quot;&gt;&lt;font style=&quot;font-size: 14px&quot;&gt;Для каждого&amp;nbsp;&lt;br&gt;пикселя текущего многоугольника&lt;br&gt;&lt;/font&gt;&lt;/font&gt;" style="shape=loopLimit;whiteSpace=wrap;html=1;strokeWidth=1;direction=east;" parent="1" vertex="1">
                    <mxGeometry x="333.63000000000005" y="397.5" width="210" height="60" as="geometry"/>
                </mxCell>
                <mxCell id="73" style="edgeStyle=none;html=1;exitX=0.5;exitY=1;exitDx=0;exitDy=0;entryX=0.5;entryY=0;entryDx=0;entryDy=0;entryPerimeter=0;fontFamily=Helvetica;fontSize=14;" parent="1" source="64" target="68" edge="1">
                    <mxGeometry relative="1" as="geometry"/>
                </mxCell>
                <mxCell id="64" value="&lt;span style=&quot;font-size: 14px&quot;&gt;Вы&lt;/span&gt;&lt;span style=&quot;font-size: 14px&quot;&gt;числить глубину&lt;/span&gt;&lt;span style=&quot;font-size: 14px&quot;&gt;&amp;nbsp;&lt;br&gt;пикселя&amp;nbsp;&lt;/span&gt;&lt;span style=&quot;font-size: 14px&quot;&gt;z&lt;/span&gt;&lt;span style=&quot;font-size: 14px&quot;&gt;(&lt;/span&gt;&lt;span style=&quot;font-size: 14px&quot;&gt;x, y&lt;/span&gt;&lt;span style=&quot;font-size: 14px&quot;&gt;)&lt;br&gt;&lt;/span&gt;" style="rounded=0;whiteSpace=wrap;html=1;shadow=0;glass=0;sketch=0;strokeWidth=1;gradientColor=none;" parent="1" vertex="1">
                    <mxGeometry x="335.69000000000005" y="487.5" width="208.31" height="60" as="geometry"/>
                </mxCell>
                <mxCell id="79" style="edgeStyle=orthogonalEdgeStyle;rounded=0;html=1;exitX=0.5;exitY=0;exitDx=0;exitDy=0;entryX=0.5;entryY=0;entryDx=0;entryDy=0;fontFamily=Helvetica;fontSize=14;" parent="1" source="67" target="87" edge="1">
                    <mxGeometry relative="1" as="geometry">
                        <mxPoint x="443.155" y="1040" as="targetPoint"/>
                    </mxGeometry>
                </mxCell>
                <mxCell id="67" value="&lt;font style=&quot;font-size: 16px&quot;&gt;&lt;span style=&quot;font-size: 14px&quot;&gt;Для каждого&amp;nbsp;&lt;/span&gt;&lt;br style=&quot;font-size: 14px&quot;&gt;&lt;span style=&quot;font-size: 14px&quot;&gt;многоугольника сцены&amp;nbsp;&lt;/span&gt;&lt;br&gt;&lt;/font&gt;" style="shape=loopLimit;whiteSpace=wrap;html=1;strokeWidth=1;direction=west;" parent="1" vertex="1">
                    <mxGeometry x="339.00000000000006" y="950" width="210" height="60" as="geometry"/>
                </mxCell>
                <mxCell id="75" style="edgeStyle=orthogonalEdgeStyle;html=1;exitX=1;exitY=0.5;exitDx=0;exitDy=0;exitPerimeter=0;entryX=0.5;entryY=0;entryDx=0;entryDy=0;fontFamily=Helvetica;fontSize=14;rounded=0;" parent="1" source="68" target="69" edge="1">
                    <mxGeometry relative="1" as="geometry"/>
                </mxCell>
                <mxCell id="81" style="edgeStyle=orthogonalEdgeStyle;rounded=0;html=1;exitX=0;exitY=0.5;exitDx=0;exitDy=0;exitPerimeter=0;fontFamily=Helvetica;fontSize=14;endArrow=none;endFill=0;" parent="1" source="68" edge="1">
                    <mxGeometry relative="1" as="geometry">
                        <mxPoint x="440" y="830" as="targetPoint"/>
                        <Array as="points">
                            <mxPoint x="220" y="618"/>
                            <mxPoint x="220" y="830"/>
                        </Array>
                    </mxGeometry>
                </mxCell>
                <mxCell id="68" value="&lt;font style=&quot;font-size: 14px&quot;&gt;z(x, y) &amp;gt; z&lt;span style=&quot;vertical-align: -2pt&quot;&gt;buf &lt;/span&gt;(x, y)&lt;/font&gt;" style="strokeWidth=1;html=1;shape=mxgraph.flowchart.decision;whiteSpace=wrap;rounded=1;shadow=0;glass=0;sketch=0;gradientColor=none;" parent="1" vertex="1">
                    <mxGeometry x="319.85" y="577.5" width="240" height="80" as="geometry"/>
                </mxCell>
                <mxCell id="76" style="edgeStyle=orthogonalEdgeStyle;rounded=0;html=1;exitX=0.5;exitY=1;exitDx=0;exitDy=0;entryX=0.5;entryY=0;entryDx=0;entryDy=0;fontFamily=Helvetica;fontSize=14;" parent="1" source="69" target="70" edge="1">
                    <mxGeometry relative="1" as="geometry"/>
                </mxCell>
                <mxCell id="69" value="&lt;font style=&quot;font-size: 14px&quot;&gt;z&lt;span style=&quot;vertical-align: -2pt&quot;&gt;buf &lt;/span&gt;(x, y) = z(x, y)&amp;nbsp;&lt;/font&gt;" style="rounded=0;whiteSpace=wrap;html=1;shadow=0;glass=0;sketch=0;strokeWidth=1;gradientColor=none;" parent="1" vertex="1">
                    <mxGeometry x="560" y="657.5" width="208.31" height="60" as="geometry"/>
                </mxCell>
                <mxCell id="77" style="edgeStyle=orthogonalEdgeStyle;rounded=0;html=1;exitX=0.5;exitY=1;exitDx=0;exitDy=0;fontFamily=Helvetica;fontSize=14;entryX=0.519;entryY=1.011;entryDx=0;entryDy=0;entryPerimeter=0;" parent="1" source="70" target="57" edge="1">
                    <mxGeometry relative="1" as="geometry">
                        <mxPoint x="441" y="860" as="targetPoint"/>
                        <Array as="points">
                            <mxPoint x="664" y="830"/>
                            <mxPoint x="440" y="830"/>
                        </Array>
                    </mxGeometry>
                </mxCell>
                <mxCell id="70" value="&lt;font style=&quot;font-size: 14px&quot;&gt;colour(x, y) = specColour&lt;/font&gt;" style="rounded=0;whiteSpace=wrap;html=1;shadow=0;glass=0;sketch=0;strokeWidth=1;gradientColor=none;" parent="1" vertex="1">
                    <mxGeometry x="560" y="739" width="208.31" height="60" as="geometry"/>
                </mxCell>
                <mxCell id="80" style="edgeStyle=orthogonalEdgeStyle;rounded=0;html=1;exitX=0.5;exitY=1;exitDx=0;exitDy=0;entryX=0.5;entryY=0.5;entryDx=0;entryDy=-29.999999999999996;entryPerimeter=0;fontFamily=Helvetica;fontSize=14;" parent="1" source="87" target="72" edge="1">
                    <mxGeometry relative="1" as="geometry">
                        <mxPoint x="443.155" y="1100" as="sourcePoint"/>
                    </mxGeometry>
                </mxCell>
                <mxCell id="72" value="&lt;font style=&quot;font-size: 14px&quot;&gt;Конец&lt;/font&gt;" style="html=1;dashed=0;whitespace=wrap;shape=mxgraph.dfd.start" parent="1" vertex="1">
                    <mxGeometry x="339.8499999999999" y="1119" width="208.31" height="60" as="geometry"/>
                </mxCell>
                <mxCell id="82" style="edgeStyle=orthogonalEdgeStyle;rounded=0;orthogonalLoop=1;jettySize=auto;html=1;exitX=0;exitY=0.5;exitDx=0;exitDy=0;exitPerimeter=0;dashed=1;endArrow=none;endFill=0;" parent="1" source="83" edge="1">
                    <mxGeometry relative="1" as="geometry">
                        <mxPoint x="330" y="100" as="targetPoint"/>
                    </mxGeometry>
                </mxCell>
                <mxCell id="83" value="" style="strokeWidth=1;html=1;shape=mxgraph.flowchart.annotation_1;align=left;pointerEvents=1;direction=west;" parent="1" vertex="1">
                    <mxGeometry x="270" y="-5" width="40" height="210" as="geometry"/>
                </mxCell>
                <mxCell id="84" value="&lt;div&gt;&lt;span style=&quot;font-size: 16px&quot;&gt;Алгоритм z-буфера&lt;/span&gt;&lt;/div&gt;&lt;div&gt;&lt;span style=&quot;font-size: 16px&quot;&gt;&lt;br&gt;&lt;/span&gt;&lt;/div&gt;&lt;span style=&quot;font-size: 16px&quot;&gt;Вход: &lt;br&gt;буфер глубины, буфер кадра,&lt;br&gt;список моделей,&amp;nbsp;&lt;/span&gt;&lt;span style=&quot;font-size: 16px&quot;&gt;их кол-во,&lt;br&gt;матрица преобразования, &lt;br&gt;цвета моделей,&lt;/span&gt;&lt;br&gt;&lt;div&gt;&lt;span style=&quot;font-size: 16px&quot;&gt;ширина и длина сцены;&lt;/span&gt;&lt;/div&gt;&lt;div&gt;&lt;span style=&quot;font-size: 16px&quot;&gt;&lt;br&gt;&lt;/span&gt;&lt;/div&gt;&lt;div&gt;&lt;span style=&quot;font-size: 16px&quot;&gt;Выход:&amp;nbsp; отрисовка&amp;nbsp;&lt;/span&gt;&lt;/div&gt;&lt;div&gt;&lt;span style=&quot;font-size: 16px&quot;&gt;готового&amp;nbsp;&lt;/span&gt;&lt;span style=&quot;font-size: 16px&quot;&gt;изображения.&amp;nbsp;&lt;/span&gt;&lt;/div&gt;" style="text;html=1;align=left;verticalAlign=middle;resizable=0;points=[];autosize=1;strokeColor=none;fillColor=none;" parent="1" vertex="1">
                    <mxGeometry x="70" y="30" width="240" height="160" as="geometry"/>
                </mxCell>
                <mxCell id="86" value="Да" style="text;html=1;align=center;verticalAlign=middle;resizable=0;points=[];autosize=1;strokeColor=none;fillColor=none;fontSize=14;fontFamily=Helvetica;" parent="1" vertex="1">
                    <mxGeometry x="580" y="590" width="30" height="20" as="geometry"/>
                </mxCell>
                <mxCell id="87" value="&lt;span style=&quot;font-family: &amp;#34;helvetica&amp;#34; ; font-size: 14px ; font-style: normal ; font-weight: 400 ; letter-spacing: normal ; text-align: center ; text-indent: 0px ; text-transform: none ; word-spacing: 0px ; display: inline ; float: none&quot;&gt;&lt;font color=&quot;#000000&quot;&gt;Вывести итоговое изображение&lt;/font&gt;&lt;/span&gt;" style="shape=parallelogram;perimeter=parallelogramPerimeter;whiteSpace=wrap;html=1;fixedSize=1;" parent="1" vertex="1">
                    <mxGeometry x="338.91999999999996" y="1040" width="210.15" height="60" as="geometry"/>
                </mxCell>
            </root>
        </mxGraphModel>
    </diagram>
</mxfile>